<mxfile host="app.diagrams.net" modified="2023-03-28T21:51:30.584Z" agent="Mozilla/5.0 (Macintosh; Intel Mac OS X 10_15_7) AppleWebKit/537.36 (KHTML, like Gecko) Chrome/111.0.0.0 Safari/537.36" etag="3jrPCX4GL2AchwZyntfb" version="21.1.1" type="device">
  <diagram name="Page-1" id="Vxqe2Clod-wK7isKixg9">
    <mxGraphModel dx="1448" dy="1284" grid="1" gridSize="10" guides="1" tooltips="1" connect="1" arrows="1" fold="1" page="1" pageScale="1" pageWidth="827" pageHeight="1169" math="0" shadow="0">
      <root>
        <mxCell id="0" />
        <mxCell id="1" parent="0" />
        <mxCell id="yqpOn3gBUZbOKEHS2J0z-1" value="User enters&lt;br&gt;School of Cooking&lt;br&gt;site." style="ellipse;whiteSpace=wrap;html=1;aspect=fixed;" vertex="1" parent="1">
          <mxGeometry x="260" y="20" width="120" height="120" as="geometry" />
        </mxCell>
        <mxCell id="yqpOn3gBUZbOKEHS2J0z-4" value="" style="endArrow=classic;html=1;rounded=0;" edge="1" parent="1">
          <mxGeometry width="50" height="50" relative="1" as="geometry">
            <mxPoint x="319.5" y="140" as="sourcePoint" />
            <mxPoint x="320" y="200" as="targetPoint" />
          </mxGeometry>
        </mxCell>
        <mxCell id="yqpOn3gBUZbOKEHS2J0z-5" value="Welcome screen and application button to apply to next cohort." style="rounded=0;whiteSpace=wrap;html=1;" vertex="1" parent="1">
          <mxGeometry x="225" y="200" width="190" height="60" as="geometry" />
        </mxCell>
        <mxCell id="yqpOn3gBUZbOKEHS2J0z-6" value="" style="endArrow=classic;html=1;rounded=0;" edge="1" parent="1">
          <mxGeometry width="50" height="50" relative="1" as="geometry">
            <mxPoint x="319.5" y="260" as="sourcePoint" />
            <mxPoint x="320" y="330" as="targetPoint" />
          </mxGeometry>
        </mxCell>
        <mxCell id="yqpOn3gBUZbOKEHS2J0z-7" value="Does user apply for next&amp;nbsp;&lt;br&gt;cohort by clicking?" style="rhombus;whiteSpace=wrap;html=1;" vertex="1" parent="1">
          <mxGeometry x="235" y="330" width="170" height="150" as="geometry" />
        </mxCell>
        <mxCell id="yqpOn3gBUZbOKEHS2J0z-8" value="" style="endArrow=classic;html=1;rounded=0;" edge="1" parent="1">
          <mxGeometry width="50" height="50" relative="1" as="geometry">
            <mxPoint x="319.5" y="480" as="sourcePoint" />
            <mxPoint x="319.5" y="550" as="targetPoint" />
          </mxGeometry>
        </mxCell>
        <mxCell id="yqpOn3gBUZbOKEHS2J0z-11" value="YES" style="text;html=1;strokeColor=none;fillColor=none;align=center;verticalAlign=middle;whiteSpace=wrap;rounded=0;" vertex="1" parent="1">
          <mxGeometry x="260" y="490" width="60" height="30" as="geometry" />
        </mxCell>
        <mxCell id="yqpOn3gBUZbOKEHS2J0z-12" value="" style="endArrow=classic;html=1;rounded=0;" edge="1" parent="1">
          <mxGeometry width="50" height="50" relative="1" as="geometry">
            <mxPoint x="235" y="404.5" as="sourcePoint" />
            <mxPoint x="150" y="405" as="targetPoint" />
          </mxGeometry>
        </mxCell>
        <mxCell id="yqpOn3gBUZbOKEHS2J0z-13" value="User continues browsing site, or leaves." style="ellipse;whiteSpace=wrap;html=1;aspect=fixed;" vertex="1" parent="1">
          <mxGeometry x="40" y="350" width="110" height="110" as="geometry" />
        </mxCell>
        <mxCell id="yqpOn3gBUZbOKEHS2J0z-14" value="NO" style="text;html=1;strokeColor=none;fillColor=none;align=center;verticalAlign=middle;whiteSpace=wrap;rounded=0;" vertex="1" parent="1">
          <mxGeometry x="170" y="380" width="60" height="30" as="geometry" />
        </mxCell>
        <mxCell id="yqpOn3gBUZbOKEHS2J0z-15" value="Information about applying and also the application form." style="rounded=0;whiteSpace=wrap;html=1;" vertex="1" parent="1">
          <mxGeometry x="220" y="560" width="200" height="85" as="geometry" />
        </mxCell>
        <mxCell id="yqpOn3gBUZbOKEHS2J0z-17" value="" style="endArrow=classic;html=1;rounded=0;" edge="1" parent="1">
          <mxGeometry width="50" height="50" relative="1" as="geometry">
            <mxPoint x="319.33" y="645" as="sourcePoint" />
            <mxPoint x="319.83" y="705" as="targetPoint" />
          </mxGeometry>
        </mxCell>
        <mxCell id="yqpOn3gBUZbOKEHS2J0z-19" value="Fills out form with personal details. Answers questions on past experience and why they want to join." style="ellipse;whiteSpace=wrap;html=1;aspect=fixed;" vertex="1" parent="1">
          <mxGeometry x="240" y="710" width="160" height="160" as="geometry" />
        </mxCell>
        <mxCell id="yqpOn3gBUZbOKEHS2J0z-20" value="" style="endArrow=classic;html=1;rounded=0;" edge="1" parent="1">
          <mxGeometry width="50" height="50" relative="1" as="geometry">
            <mxPoint x="319.33" y="870" as="sourcePoint" />
            <mxPoint x="319.83" y="930" as="targetPoint" />
          </mxGeometry>
        </mxCell>
        <mxCell id="yqpOn3gBUZbOKEHS2J0z-21" value="Website thanks user for submission and gives further details on next steps and timescale." style="rounded=0;whiteSpace=wrap;html=1;" vertex="1" parent="1">
          <mxGeometry x="240" y="940" width="160" height="70" as="geometry" />
        </mxCell>
        <mxCell id="yqpOn3gBUZbOKEHS2J0z-23" value="" style="endArrow=classic;html=1;rounded=0;" edge="1" parent="1">
          <mxGeometry width="50" height="50" relative="1" as="geometry">
            <mxPoint x="319.33" y="1010" as="sourcePoint" />
            <mxPoint x="319.83" y="1070" as="targetPoint" />
          </mxGeometry>
        </mxCell>
        <mxCell id="yqpOn3gBUZbOKEHS2J0z-33" value="Stage 2 application details sent to user." style="rounded=0;whiteSpace=wrap;html=1;" vertex="1" parent="1">
          <mxGeometry x="245" y="1080" width="150" height="60" as="geometry" />
        </mxCell>
        <mxCell id="yqpOn3gBUZbOKEHS2J0z-42" value="Does user accept going through to stage 2 of the application." style="rhombus;whiteSpace=wrap;html=1;" vertex="1" parent="1">
          <mxGeometry x="235" y="1200" width="170" height="170" as="geometry" />
        </mxCell>
        <mxCell id="yqpOn3gBUZbOKEHS2J0z-43" value="" style="endArrow=classic;html=1;rounded=0;" edge="1" parent="1">
          <mxGeometry width="50" height="50" relative="1" as="geometry">
            <mxPoint x="320" y="1370" as="sourcePoint" />
            <mxPoint x="320.5" y="1430" as="targetPoint" />
          </mxGeometry>
        </mxCell>
        <mxCell id="yqpOn3gBUZbOKEHS2J0z-44" value="" style="endArrow=classic;html=1;rounded=0;exitX=0;exitY=0.5;exitDx=0;exitDy=0;" edge="1" source="yqpOn3gBUZbOKEHS2J0z-42" parent="1">
          <mxGeometry width="50" height="50" relative="1" as="geometry">
            <mxPoint x="220" y="1291" as="sourcePoint" />
            <mxPoint x="170" y="1285" as="targetPoint" />
          </mxGeometry>
        </mxCell>
        <mxCell id="yqpOn3gBUZbOKEHS2J0z-45" value="NO" style="text;html=1;strokeColor=none;fillColor=none;align=center;verticalAlign=middle;whiteSpace=wrap;rounded=0;" vertex="1" parent="1">
          <mxGeometry x="180" y="1250" width="60" height="30" as="geometry" />
        </mxCell>
        <mxCell id="yqpOn3gBUZbOKEHS2J0z-46" value="YES" style="text;html=1;strokeColor=none;fillColor=none;align=center;verticalAlign=middle;whiteSpace=wrap;rounded=0;" vertex="1" parent="1">
          <mxGeometry x="260" y="1360" width="60" height="30" as="geometry" />
        </mxCell>
        <mxCell id="yqpOn3gBUZbOKEHS2J0z-47" value="User has left the application process." style="ellipse;whiteSpace=wrap;html=1;aspect=fixed;" vertex="1" parent="1">
          <mxGeometry x="40" y="1210" width="130" height="130" as="geometry" />
        </mxCell>
        <mxCell id="yqpOn3gBUZbOKEHS2J0z-49" value="" style="endArrow=classic;html=1;rounded=0;" edge="1" parent="1">
          <mxGeometry width="50" height="50" relative="1" as="geometry">
            <mxPoint x="318.95" y="1140" as="sourcePoint" />
            <mxPoint x="319.45" y="1200" as="targetPoint" />
          </mxGeometry>
        </mxCell>
        <mxCell id="yqpOn3gBUZbOKEHS2J0z-50" value="User takes picture of a meal they have prepared, along with a video detailing steps of creation." style="ellipse;whiteSpace=wrap;html=1;aspect=fixed;" vertex="1" parent="1">
          <mxGeometry x="225" y="1430" width="190" height="190" as="geometry" />
        </mxCell>
        <mxCell id="yqpOn3gBUZbOKEHS2J0z-52" value="" style="endArrow=classic;html=1;rounded=0;" edge="1" parent="1">
          <mxGeometry width="50" height="50" relative="1" as="geometry">
            <mxPoint x="320" y="1620" as="sourcePoint" />
            <mxPoint x="320.5" y="1680" as="targetPoint" />
          </mxGeometry>
        </mxCell>
        <mxCell id="yqpOn3gBUZbOKEHS2J0z-53" value="User submits stage 2 picture and video within the URL provided by email." style="rounded=0;whiteSpace=wrap;html=1;" vertex="1" parent="1">
          <mxGeometry x="220" y="1680" width="200" height="90" as="geometry" />
        </mxCell>
        <mxCell id="yqpOn3gBUZbOKEHS2J0z-56" value="" style="endArrow=classic;html=1;rounded=0;" edge="1" parent="1">
          <mxGeometry width="50" height="50" relative="1" as="geometry">
            <mxPoint x="319.33" y="1770" as="sourcePoint" />
            <mxPoint x="319.83" y="1830" as="targetPoint" />
          </mxGeometry>
        </mxCell>
        <mxCell id="yqpOn3gBUZbOKEHS2J0z-57" value="Email telling user they have got through to stage 3 along with details." style="rounded=0;whiteSpace=wrap;html=1;" vertex="1" parent="1">
          <mxGeometry x="235" y="1830" width="170" height="90" as="geometry" />
        </mxCell>
        <mxCell id="yqpOn3gBUZbOKEHS2J0z-58" value="Does user accept going through to stage 3 of the application." style="rhombus;whiteSpace=wrap;html=1;" vertex="1" parent="1">
          <mxGeometry x="235" y="1980" width="170" height="170" as="geometry" />
        </mxCell>
        <mxCell id="yqpOn3gBUZbOKEHS2J0z-59" value="" style="endArrow=classic;html=1;rounded=0;" edge="1" parent="1">
          <mxGeometry width="50" height="50" relative="1" as="geometry">
            <mxPoint x="320" y="2150" as="sourcePoint" />
            <mxPoint x="320.5" y="2210" as="targetPoint" />
          </mxGeometry>
        </mxCell>
        <mxCell id="yqpOn3gBUZbOKEHS2J0z-60" value="" style="endArrow=classic;html=1;rounded=0;exitX=0;exitY=0.5;exitDx=0;exitDy=0;" edge="1" parent="1" source="yqpOn3gBUZbOKEHS2J0z-58">
          <mxGeometry width="50" height="50" relative="1" as="geometry">
            <mxPoint x="220" y="2071" as="sourcePoint" />
            <mxPoint x="170" y="2065" as="targetPoint" />
          </mxGeometry>
        </mxCell>
        <mxCell id="yqpOn3gBUZbOKEHS2J0z-61" value="NO" style="text;html=1;strokeColor=none;fillColor=none;align=center;verticalAlign=middle;whiteSpace=wrap;rounded=0;" vertex="1" parent="1">
          <mxGeometry x="180" y="2030" width="60" height="30" as="geometry" />
        </mxCell>
        <mxCell id="yqpOn3gBUZbOKEHS2J0z-62" value="YES" style="text;html=1;strokeColor=none;fillColor=none;align=center;verticalAlign=middle;whiteSpace=wrap;rounded=0;" vertex="1" parent="1">
          <mxGeometry x="260" y="2160" width="60" height="30" as="geometry" />
        </mxCell>
        <mxCell id="yqpOn3gBUZbOKEHS2J0z-63" value="User has left the application process." style="ellipse;whiteSpace=wrap;html=1;aspect=fixed;" vertex="1" parent="1">
          <mxGeometry x="40" y="1990" width="130" height="130" as="geometry" />
        </mxCell>
        <mxCell id="yqpOn3gBUZbOKEHS2J0z-64" value="" style="endArrow=classic;html=1;rounded=0;" edge="1" parent="1">
          <mxGeometry width="50" height="50" relative="1" as="geometry">
            <mxPoint x="319" y="1920" as="sourcePoint" />
            <mxPoint x="319.5" y="1980" as="targetPoint" />
          </mxGeometry>
        </mxCell>
        <mxCell id="yqpOn3gBUZbOKEHS2J0z-65" value="User takes part in group task and interview for stage 3." style="ellipse;whiteSpace=wrap;html=1;aspect=fixed;" vertex="1" parent="1">
          <mxGeometry x="255" y="2210" width="130" height="130" as="geometry" />
        </mxCell>
        <mxCell id="yqpOn3gBUZbOKEHS2J0z-66" value="" style="endArrow=classic;html=1;rounded=0;" edge="1" parent="1">
          <mxGeometry width="50" height="50" relative="1" as="geometry">
            <mxPoint x="318.89" y="2340" as="sourcePoint" />
            <mxPoint x="318.89" y="2410" as="targetPoint" />
          </mxGeometry>
        </mxCell>
        <mxCell id="yqpOn3gBUZbOKEHS2J0z-67" value="User receives email saying they have been accepted to the School of Cooking." style="rounded=0;whiteSpace=wrap;html=1;" vertex="1" parent="1">
          <mxGeometry x="235" y="2420" width="170" height="80" as="geometry" />
        </mxCell>
        <mxCell id="yqpOn3gBUZbOKEHS2J0z-69" value="Does user accept going through to stage 3 of the application." style="rhombus;whiteSpace=wrap;html=1;" vertex="1" parent="1">
          <mxGeometry x="235" y="2570" width="170" height="170" as="geometry" />
        </mxCell>
        <mxCell id="yqpOn3gBUZbOKEHS2J0z-70" value="" style="endArrow=classic;html=1;rounded=0;exitX=0;exitY=0.5;exitDx=0;exitDy=0;" edge="1" parent="1" source="yqpOn3gBUZbOKEHS2J0z-69">
          <mxGeometry width="50" height="50" relative="1" as="geometry">
            <mxPoint x="220" y="2661" as="sourcePoint" />
            <mxPoint x="170" y="2655" as="targetPoint" />
          </mxGeometry>
        </mxCell>
        <mxCell id="yqpOn3gBUZbOKEHS2J0z-71" value="NO" style="text;html=1;strokeColor=none;fillColor=none;align=center;verticalAlign=middle;whiteSpace=wrap;rounded=0;" vertex="1" parent="1">
          <mxGeometry x="180" y="2620" width="60" height="30" as="geometry" />
        </mxCell>
        <mxCell id="yqpOn3gBUZbOKEHS2J0z-72" value="YES" style="text;html=1;strokeColor=none;fillColor=none;align=center;verticalAlign=middle;whiteSpace=wrap;rounded=0;" vertex="1" parent="1">
          <mxGeometry x="260" y="2750" width="60" height="30" as="geometry" />
        </mxCell>
        <mxCell id="yqpOn3gBUZbOKEHS2J0z-73" value="User has left the application process." style="ellipse;whiteSpace=wrap;html=1;aspect=fixed;" vertex="1" parent="1">
          <mxGeometry x="40" y="2580" width="130" height="130" as="geometry" />
        </mxCell>
        <mxCell id="yqpOn3gBUZbOKEHS2J0z-75" value="" style="endArrow=classic;html=1;rounded=0;" edge="1" parent="1">
          <mxGeometry width="50" height="50" relative="1" as="geometry">
            <mxPoint x="318.89" y="2500" as="sourcePoint" />
            <mxPoint x="318.89" y="2570" as="targetPoint" />
          </mxGeometry>
        </mxCell>
        <mxCell id="yqpOn3gBUZbOKEHS2J0z-76" value="" style="endArrow=classic;html=1;rounded=0;" edge="1" parent="1">
          <mxGeometry width="50" height="50" relative="1" as="geometry">
            <mxPoint x="318.89" y="2740" as="sourcePoint" />
            <mxPoint x="318.89" y="2810" as="targetPoint" />
          </mxGeometry>
        </mxCell>
        <mxCell id="yqpOn3gBUZbOKEHS2J0z-77" value="User learns to cook." style="ellipse;whiteSpace=wrap;html=1;aspect=fixed;" vertex="1" parent="1">
          <mxGeometry x="280" y="2950" width="80" height="80" as="geometry" />
        </mxCell>
        <mxCell id="yqpOn3gBUZbOKEHS2J0z-78" value="User sent final details on start date and other information." style="rounded=0;whiteSpace=wrap;html=1;" vertex="1" parent="1">
          <mxGeometry x="260" y="2820" width="120" height="60" as="geometry" />
        </mxCell>
        <mxCell id="yqpOn3gBUZbOKEHS2J0z-79" value="" style="endArrow=classic;html=1;rounded=0;" edge="1" parent="1">
          <mxGeometry width="50" height="50" relative="1" as="geometry">
            <mxPoint x="318.89" y="2880" as="sourcePoint" />
            <mxPoint x="318.89" y="2950" as="targetPoint" />
          </mxGeometry>
        </mxCell>
        <mxCell id="yqpOn3gBUZbOKEHS2J0z-81" value="&lt;b&gt;&lt;u&gt;School of Cooking user flow&lt;/u&gt;&lt;/b&gt;" style="text;html=1;strokeColor=none;fillColor=none;align=center;verticalAlign=middle;whiteSpace=wrap;rounded=0;" vertex="1" parent="1">
          <mxGeometry x="30" y="10" width="150" height="80" as="geometry" />
        </mxCell>
      </root>
    </mxGraphModel>
  </diagram>
</mxfile>
